<svg width="60" height="60" viewBox="0 0 60 60" fill="none" xmlns="http://www.w3.org/2000/svg">
<circle cx="30" cy="30" r="27.5" fill="#FF0000" stroke="white" stroke-width="5"/>
<path d="M20.3203 37.457L26.3359 28.0469V27.6602L20.9219 19.4531C20.7643 19.2096 20.6139 18.9733 20.4707 18.7441C20.3275 18.5007 20.1914 18.2643 20.0625 18.0352C19.8477 17.6484 19.6471 17.2402 19.4609 16.8105C19.2891 16.3809 19.2031 16.0156 19.2031 15.7148C19.2031 15.3281 19.3105 14.9342 19.5254 14.5332C19.7546 14.1322 20.1484 13.7669 20.707 13.4375C21.3516 13.0938 21.9388 12.9219 22.4688 12.9219C23.2852 12.9219 23.9583 13.2513 24.4883 13.9102C25.0326 14.5547 25.5339 15.2565 25.9922 16.0156L29.9883 22.5898H30.6328L34.6289 16.0156C35.1016 15.2565 35.6029 14.5547 36.1328 13.9102C36.6628 13.2513 37.3359 12.9219 38.1523 12.9219C38.4102 12.9219 38.6823 12.972 38.9688 13.0723C39.2695 13.1725 39.5846 13.3086 39.9141 13.4805C40.5156 13.8099 40.931 14.168 41.1602 14.5547C41.3893 14.9271 41.5039 15.2995 41.5039 15.6719C41.5039 15.987 41.4108 16.3594 41.2246 16.7891C41.0384 17.2188 40.8307 17.6341 40.6016 18.0352C40.3438 18.5078 40.043 18.9805 39.6992 19.4531L34.3281 27.6602V28.0469L40.3008 37.457C40.6016 37.9297 40.8594 38.4023 41.0742 38.875C41.3034 39.3333 41.418 39.7917 41.418 40.25C41.418 40.6367 41.3105 41.0234 41.0957 41.4102C40.8952 41.7826 40.5156 42.1406 39.957 42.4844C39.3125 42.8281 38.7253 43 38.1953 43C37.4505 43 36.8346 42.7279 36.3477 42.1836C35.8607 41.6393 35.4023 41.0378 34.9727 40.3789L30.6328 33.332H29.9883L25.6484 40.3789C25.2188 41.0378 24.7604 41.6393 24.2734 42.1836C23.7865 42.7279 23.1849 43 22.4688 43C21.9245 43 21.3516 42.8281 20.75 42.4844C20.1628 42.1406 19.7546 41.7826 19.5254 41.4102C19.3105 41.0234 19.2031 40.6367 19.2031 40.25C19.2031 39.7917 19.3105 39.3333 19.5254 38.875C19.7546 38.4023 20.0195 37.9297 20.3203 37.457Z" fill="white"/>
</svg>
